<?xml version="1.0" standalone="no"?>
<svg id="SvgjsSvg1001" width="600" height="600" xmlns="http://www.w3.org/2000/svg" version="1.1" xmlns:xlink="http://www.w3.org/1999/xlink" xmlns:svgjs="http://svgjs.com/svgjs" class="svg-paper" viewBox="0 0 600 600"><title id="SvgjsTitle2622">x=2.6sin(0.4y0.8cos(exp(0.6x)))/0.80.2|y=0.4sqrt(1.4x*x / 0.6y*y)*1.60.6|dTest=0.0|sd=0.9|sm=0.7|ts=0.2 | generated with FlowLines</title><rect id="SvgjsRect2623" width="600" height="600" fill="#878786"/><g id="SvgjsG2624"><polyline id="SvgjsPolyline2625" points="29.88,592.61 13.07,557.62 0,521.08" fill="none" stroke="#d0d0d0" stroke-width="3"/><polyline id="SvgjsPolyline2626" points="97.75,598.8 72.29,557.51 55.66,522.45 49.17,504.15 44.07,485.42 40.49,466.35 38.54,447.03 38.27,427.63 39.72,408.27 42.85,389.12 47.59,370.29 53.84,351.92 61.47,334.07 80.35,300.17 103.26,268.84 129.44,240.18 150.89,220.49 165.97,208.27 197.89,186.17 223.28,171.93 249.85,160.04 277.49,150.9 315.42,142.63 334.03,137.12 360.64,125.37 376.94,114.85 391.69,102.24 425.11,67.05 461.65,35.13 473.78,20.02 483.41,3.17" fill="none" stroke="#d0d0d0" stroke-width="3"/><polyline id="SvgjsPolyline2627" points="166.44,596.11 153.39,581.74 135.45,558.8 119.52,534.44 110.56,517.22 103.1,499.3 95.11,471.32 92.16,452.14 91.23,432.76 93.72,403.77 100.72,375.53 107.67,357.41 116.27,340.01 131.87,315.44 150.23,292.85 170.9,272.35 201.49,248.48 226.37,233.36 252.66,220.86 280.15,211.27 308.46,204.5 326.99,198.71 344.59,190.57 360.7,179.77 368,173.37 380.94,158.92 412.95,110.28 424.59,94.75 438.02,80.75 467.08,55.02 490.45,24.06 509.86,2.36" fill="none" stroke="#d0d0d0" stroke-width="3"/><polyline id="SvgjsPolyline2628" points="3.21,332.47 15.11,305.9 29.11,280.37 44.9,255.9 68.25,224.89 87.21,202.79 114.14,174.82 142.74,148.56 165.23,130.06 204.78,101.95 238.55,82.82 256.25,74.84 274.5,68.24 321.67,56.89 358.32,44.13 375.84,35.78 392.58,25.95 423.98,3.13" fill="none" stroke="#d0d0d0" stroke-width="3"/><polyline id="SvgjsPolyline2629" points="268.61,599.61 242.64,586.49 226.43,575.81 211.27,563.69 197,550.53 183.72,536.37 171.93,520.95 161.84,504.38 153.69,486.77 147.71,468.31 143.32,439.57 144.77,410.53 148.93,391.58 155.47,373.31 164.14,355.94 180.56,331.93 200.37,310.61 222.89,292.18 247.58,276.76 265.02,268.24 283.1,261.18 310.97,252.75 328.68,244.84 336.94,239.76 351.82,227.33 364.24,212.43 374.54,195.99 404.66,135.08 419.44,110.01 431.52,94.83 438.35,87.94 467.39,62.18 491.45,31.73 517.25,2.73" fill="none" stroke="#d0d0d0" stroke-width="3"/><polyline id="SvgjsPolyline2630" points="0.31,225.02 22.34,193.05 51.76,154.45 145.22,42.78 175.07,4.52" fill="none" stroke="#d0d0d0" stroke-width="3"/><polyline id="SvgjsPolyline2631" points="4.65,259.53 26.43,227.39 56.28,189.12 88.38,152.72 122.19,117.9 164.65,78.03 201.7,46.69 240.93,18.12 266.05,3.41" fill="none" stroke="#d0d0d0" stroke-width="3"/><polyline id="SvgjsPolyline2632" points="393.22,594.05 378.1,581.92 352.28,568.55 324.79,558.96 296.57,551.79 269.16,542.01 243.81,527.76 228.72,515.57 215.49,501.38 204.51,485.39 196.18,467.87 193.13,458.66 189.47,439.62 188.91,429.93 189.2,420.23 192.29,401.08 198.5,382.71 207.44,365.5 218.69,349.69 231.84,335.42 246.56,322.77 262.53,311.75 279.54,302.39 306.41,291.21 323.29,281.67 330.9,275.65 344.2,261.55 355.17,245.54 364.43,228.48 399.47,148.46 417.75,114.24 429.38,98.71 436.01,91.63 465.09,65.91 471.73,58.83 489.51,35.77 515.32,6.77" fill="none" stroke="#d0d0d0" stroke-width="3"/><polyline id="SvgjsPolyline2633" points="3.05,128.61 49.87,54.86 64,29.4 76.53,3.11" fill="none" stroke="#d0d0d0" stroke-width="3"/><polyline id="SvgjsPolyline2634" points="469.91,594.99 442.4,567.58 409.38,532.01 387.03,513.4 370.5,503.24 344.4,490.33 290.32,468.74 274.05,458.25 267.18,451.41 261.46,443.58 257.06,434.93 254.14,425.69 252.76,416.09 252.88,406.39 257.2,387.52 261.11,378.64 271.62,362.35 284.84,348.17 307.59,330.01 314.52,323.22 326.66,308.08 337.06,291.69 358.58,248.21 399.3,149.5 417.39,115.18 428.92,99.57 435.5,92.45 471.26,59.68 489.08,36.66 521,0.12" fill="none" stroke="#d0d0d0" stroke-width="3"/><polyline id="SvgjsPolyline2635" points="3.07,27.45 13.35,0.21" fill="none" stroke="#d0d0d0" stroke-width="3"/><polyline id="SvgjsPolyline2636" points="528.27,593.4 516,567 487.31,527.92 466.43,484.14 456.35,467.57 443.48,453.06 421.54,433.93 398.21,416.5 357.93,389.43 343.03,377.01 336.54,369.79 331.27,361.66 327.85,352.6 326.64,342.99 329.46,323.84 335.69,305.46 394.09,161.54 410.74,126.47 426.77,102.2 440.09,88.1 469.01,62.23 493.13,31.81 518.89,2.78" fill="none" stroke="#d0d0d0" stroke-width="3"/><polyline id="SvgjsPolyline2637" points="536.49,592.65 518.1,558.49 500.61,535.26 490.25,518.87 479.78,491.74 468.88,444.46 447.74,320.04 433.67,253.56 431.09,234.33 430.86,224.62 431.72,214.96 434.05,205.54 442.21,187.95 447.62,179.9 454.06,172.64 489.39,139.36 502.6,125.15 508.12,117.17 525.87,82.68 543.49,59.52 581.14,3.03" fill="none" stroke="#d0d0d0" stroke-width="3"/><polyline id="SvgjsPolyline2638" points="538.33,595.94 533,587.83 514.74,553.59 496.88,530.6 487.49,513.64 477.93,486.16 461.67,420.2 453.19,402.79 447.34,395.04 433.78,381.17 374.49,331.05 362.51,315.83 358.34,307.08 355.84,297.71 355.03,288.05 357.12,268.78 364.82,240.71 381.11,194.99" fill="none" stroke="#d0d0d0" stroke-width="3"/><polyline id="SvgjsPolyline2639" points="599.25,594.7 551.61,510.23 548.08,501.19 540.31,473.13 532.5,455.41 503.43,416.57 498.72,408.09 495.56,398.93 493.17,379.7 495.23,340.95 509.06,205.74 514.02,167.23 519.66,138.67 526.54,120.56 561.22,73.83 570.6,56.83 581.39,40.71 589.95,23.29 595.27,15.17" fill="none" stroke="#d0d0d0" stroke-width="3"/><polyline id="SvgjsPolyline2640" points="599.63,484.32 590.47,467.23 588.03,457.85 586.19,428.82 590.32,361 596.37,215.51 599.34,167.06" fill="none" stroke="#d0d0d0" stroke-width="3"/></g></svg>